<svg width="32" height="32" viewBox="0 0 32 32" fill="none" xmlns="http://www.w3.org/2000/svg">
<path d="M18.9249 9.31832C18.9249 10.803 17.6154 12.0066 16 12.0066C14.3847 12.0066 13.0752 10.803 13.0752 9.31832C13.0752 7.83363 14.3847 6.63006 16 6.63006C17.6154 6.63006 18.9249 7.83363 18.9249 9.31832Z" fill="#FF6500"/>
<path d="M21.3622 19.1303C21.3622 21.2088 18.9615 21.2811 16 21.2811C13.0386 21.2811 10.6379 21.2088 10.6379 19.1303C10.6379 17.0518 11.9784 13.6195 16 13.6195C20.0217 13.6195 21.3622 17.0518 21.3622 19.1303Z" fill="#FF6500"/>
<path d="M8.20051 15.9045C9.81584 15.9045 11.1253 14.701 11.1253 13.2163C11.1253 11.7316 9.81584 10.528 8.20051 10.528C6.58518 10.528 5.27569 11.7316 5.27569 13.2163C5.27569 14.701 6.58518 15.9045 8.20051 15.9045Z" fill="#FF6500"/>
<path d="M26.7244 13.2163C26.7244 14.701 25.4149 15.9045 23.7996 15.9045C22.1842 15.9045 20.8747 14.701 20.8747 13.2163C20.8747 11.7316 22.1842 10.528 23.7996 10.528C25.4149 10.528 26.7244 11.7316 26.7244 13.2163Z" fill="#FF6500"/>
<path fill-rule="evenodd" clip-rule="evenodd" d="M16 30.0235C24.6402 30.0235 31.6445 23.7403 31.6445 15.9896C31.6445 11.6178 29.4161 7.71285 25.9226 5.13902C23.2765 3.15752 19.8034 1.95557 16 1.95557C12.1967 1.95557 8.72352 3.15753 6.07742 5.13905C2.58398 7.71287 0.355591 11.6178 0.355591 15.9896C0.355591 23.7403 7.35985 30.0235 16 30.0235ZM16 26.9177C24.068 26.9177 30.4435 21.3745 30.4435 14.7242C30.4435 8.07392 24.068 2.53073 16 2.53073C7.93204 2.53073 1.55653 8.07392 1.55653 14.7242C1.55653 21.3745 7.93204 26.9177 16 26.9177Z" fill="#FF6500"/>
</svg>
